<?xml version="1.0" encoding="UTF-8"?>
<svg version="1.1" xmlns="http://www.w3.org/2000/svg" width="320" height="124">
<path d="M0 0 C2.27024968 -0.08097324 4.54132075 -0.13917704 6.8125 -0.1875 C8.07707031 -0.22230469 9.34164062 -0.25710937 10.64453125 -0.29296875 C14 0 14 0 15.71484375 1.40234375 C16.35099609 2.19318359 16.35099609 2.19318359 17 3 C18.80157322 3.95187893 18.80157322 3.95187893 20.75 4.75 C27.91368306 8.25283032 32.63275699 13.41637442 35.28222656 20.97119141 C36.1227605 24.51801589 36.15104835 27.69850224 36.09765625 31.33984375 C36.08355713 32.59015381 36.06945801 33.84046387 36.05493164 35.12866211 C36.0368042 36.07620361 36.01867676 37.02374512 36 38 C31.51601216 38.09903473 27.03260708 38.17154483 22.54785156 38.21972656 C21.02299915 38.23981599 19.49822352 38.26709316 17.97363281 38.30175781 C15.77910402 38.35039796 13.58559531 38.37299396 11.390625 38.390625 C9.4111084 38.4220459 9.4111084 38.4220459 7.39160156 38.45410156 C4 38 4 38 1.53808594 36.19824219 C0 34 0 34 0 30.4375 C1 27 1 27 2.546875 25.296875 C6.0546324 23.44245548 9.38954253 23.67949837 13.25 23.8125 C14.36761719 23.83280273 14.36761719 23.83280273 15.5078125 23.85351562 C17.33885416 23.88872796 19.16952169 23.94253149 21 24 C19.12067595 19.60569817 16.25905636 17.90489441 12 16 C6.55843077 14.22557525 2.00583444 15.52092009 -3 18 C-7.04923537 21.94540882 -8.80382185 25.84204037 -9.3125 31.4375 C-8.84030891 36.82047846 -7.07870054 40.26400889 -3.0625 43.8125 C1.48375965 47.05982832 4.76806622 47.12373554 10.296875 47.09765625 C11.50214844 47.09443359 12.70742187 47.09121094 13.94921875 47.08789062 C15.83060547 47.07532227 15.83060547 47.07532227 17.75 47.0625 C19.65458984 47.05573242 19.65458984 47.05573242 21.59765625 47.04882812 C24.73181836 47.03704556 27.86588541 47.02059416 31 47 C27.7373703 53.83949707 21.6095748 57.63285812 15 61 C7.97657818 63.48150878 -0.92463803 60.80703289 -7.4375 57.8125 C-15.27739029 53.46123403 -20.83037632 45.60438906 -23.62109375 37.109375 C-24.11358688 34.36766065 -24.20858752 31.72248914 -24.25 28.9375 C-24.27578125 27.89464844 -24.3015625 26.85179687 -24.328125 25.77734375 C-23.94619261 22.54455887 -23.38494005 22.05946588 -21 20 C-20.02879034 18.39491961 -19.09370709 16.76765637 -18.1875 15.125 C-13.63038239 7.44044874 -8.20957579 4.26558682 0 1 C0 0.67 0 0.34 0 0 Z " fill="#009AD9" transform="translate(55,31)"/>
<path d="M0 0 C1.093125 0.00257812 2.18625 0.00515625 3.3125 0.0078125 C4.405625 0.00523438 5.49875 0.00265625 6.625 0 C9.3125 0.1328125 9.3125 0.1328125 10.3125 1.1328125 C10.40626053 2.94336275 10.4299411 4.75758451 10.42602539 6.57055664 C10.42594986 7.73168472 10.42587433 8.89281281 10.42579651 10.08912659 C10.42063522 11.3526445 10.41547394 12.61616241 10.41015625 13.91796875 C10.4087413 15.20392441 10.40732635 16.48988007 10.40586853 17.81480408 C10.40204418 21.23924693 10.39221462 24.66364759 10.38116455 28.08807373 C10.37094864 31.58019439 10.36637053 35.07232184 10.36132812 38.56445312 C10.35059226 45.42059203 10.33299614 52.2766959 10.3125 59.1328125 C6.6825 59.1328125 3.0525 59.1328125 -0.6875 59.1328125 C-1.3475 57.8128125 -2.0075 56.4928125 -2.6875 55.1328125 C-3.450625 55.9371875 -4.21375 56.7415625 -5 57.5703125 C-8.91428289 61.30253572 -12.28042493 61.53039428 -17.46875 61.48828125 C-21.02543125 60.91846084 -22.52276883 58.87056075 -24.6875 56.1328125 C-25.5228125 55.359375 -25.5228125 55.359375 -26.375 54.5703125 C-27.91053453 52.88853659 -28.72378549 51.18873679 -29.6875 49.1328125 C-30.3475 48.1428125 -31.0075 47.1528125 -31.6875 46.1328125 C-31.82995897 43.36625926 -31.87519445 40.70627944 -31.8125 37.9453125 C-31.80347656 37.19572266 -31.79445313 36.44613281 -31.78515625 35.67382812 C-31.76162578 33.82668596 -31.72575561 31.97970838 -31.6875 30.1328125 C-31.0275 30.1328125 -30.3675 30.1328125 -29.6875 30.1328125 C-29.45675781 29.54113281 -29.22601563 28.94945313 -28.98828125 28.33984375 C-26.9166382 23.32040823 -24.98091439 19.65561405 -20.6875 16.1328125 C-17.16924645 14.96006132 -15.25613959 15.33203376 -11.625 15.9453125 C-10.56152344 16.11675781 -9.49804688 16.28820312 -8.40234375 16.46484375 C-5.6875 17.1328125 -5.6875 17.1328125 -3.6875 19.1328125 C-3.69910156 17.84503906 -3.71070312 16.55726562 -3.72265625 15.23046875 C-3.7320327 13.55208478 -3.74113305 11.87369924 -3.75 10.1953125 C-3.75837891 9.34517578 -3.76675781 8.49503906 -3.77539062 7.61914062 C-3.78022461 6.40581055 -3.78022461 6.40581055 -3.78515625 5.16796875 C-3.79301147 4.04467163 -3.79301147 4.04467163 -3.80102539 2.89868164 C-3.61170958 -0.04609532 -2.95917641 0.14623837 0 0 Z M-11.6875 26.1328125 C-7.6875 27.1328125 -7.6875 27.1328125 -7.6875 27.1328125 Z M-15.625 28.6328125 C-18.41797052 35.20450784 -17.8468431 40.54113357 -15.6875 47.1328125 C-13.10759199 49.71272051 -11.18505539 49.44880088 -7.66015625 49.59375 C-5.55545853 49.27191893 -5.55545853 49.27191893 -3.95703125 47.546875 C-2.24840659 44.2978595 -2.28925948 41.78932051 -2.3125 38.1328125 C-2.30476563 36.9159375 -2.29703125 35.6990625 -2.2890625 34.4453125 C-2.70907249 30.95346477 -3.12013388 29.50268892 -5.6875 27.1328125 C-9.28472585 26.14647638 -12.6596537 26.33706053 -15.625 28.6328125 Z " fill="#009AD9" transform="translate(131.6875,31.8671875)"/>
<path d="M0 0 C1.6640625 1.71484375 1.6640625 1.71484375 2.625 3.9375 C3.51390204 6.18404037 3.51390204 6.18404037 5 8 C8.07477436 8.81859847 8.07477436 8.81859847 11 9 C11.02693575 11.12493141 11.04636628 13.24995912 11.0625 15.375 C11.07410156 16.55835937 11.08570313 17.74171875 11.09765625 18.9609375 C11 22 11 22 10 24 C8.00773831 24.28919928 6.01277818 24.57264551 4.0078125 24.75390625 C1.21796912 25.09585203 -0.67425578 25.73940462 -2.875 27.5 C-5 29 -5 29 -7.37109375 29.390625 C-11.9185283 30.44471087 -14.85983574 33.67553716 -18 37 C-19.45291273 39.46255685 -19.45291273 39.46255685 -20 42 C-20.309375 42.845625 -20.61875 43.69125 -20.9375 44.5625 C-22.51188923 49.65611221 -23.73409436 54.82129509 -25 60 C-29.95 60 -34.9 60 -40 60 C-40.33 57.69 -40.66 55.38 -41 53 C-41.94875 52.71125 -42.8975 52.4225 -43.875 52.125 C-47 51 -47 51 -49 49 C-50.11860009 41.44944936 -47.42379564 35.1252555 -43 29 C-39.01115902 27.50418463 -37.09470855 27.6739166 -33.0625 28.875 C-29.26008718 29.03020052 -28.57095419 28.17957856 -25.75 25.75 C-23.42488318 23.56907647 -21.78241423 21.67362134 -20 19 C-20.3121764 16.35367713 -20.3121764 16.35367713 -21 14 C-21.66 14 -22.32 14 -23 14 C-23 11.69 -23 9.38 -23 7 C-20.6750948 5.81332964 -18.34240541 4.65120114 -16 3.5 C-15.35160156 3.16613281 -14.70320313 2.83226562 -14.03515625 2.48828125 C-9.13801727 0.11244155 -5.44762955 -0.69111718 0 0 Z M2 23 C6 24 6 24 6 24 Z M-24 45 C-23 47 -23 47 -23 47 Z M-25 48 C-24 50 -24 50 -24 50 Z M-26 50 C-26 51.65 -26 53.3 -26 55 C-25.67 55 -25.34 55 -25 55 C-25 53.35 -25 51.7 -25 50 C-25.33 50 -25.66 50 -26 50 Z " fill="#1D3978" transform="translate(49,0)"/>
<path d="M0 0 C0.33 10.23 0.66 20.46 1 31 C3.31 28.36 5.62 25.72 8 23 C9.64865021 21.31550956 11.30864609 19.64160821 13 18 C13.33 17.67 13.66 17.34 14 17 C16.52596259 16.76346477 19.03107207 16.57826308 21.5625 16.4375 C22.62887695 16.37272461 22.62887695 16.37272461 23.71679688 16.30664062 C25.47761912 16.20028223 27.2387832 16.09961154 29 16 C27.65285534 19.03767912 26.17833297 20.99668202 23.75 23.25 C20.02468718 26.85035474 16.99134616 30.78143491 14 35 C15.41967134 38.08987292 17.13055576 40.59592117 19.25 43.25 C19.86488281 44.03117187 20.47976563 44.81234375 21.11328125 45.6171875 C22.33877345 47.16491057 23.5652786 48.71183231 24.79296875 50.2578125 C25.33566406 50.95648438 25.87835938 51.65515625 26.4375 52.375 C27.17806641 53.31472656 27.17806641 53.31472656 27.93359375 54.2734375 C29 56 29 56 29 59 C24.20015805 59.59914809 19.77363486 59.88690484 15 59 C12.37919464 56.58665742 10.91851294 54.31270442 9.234375 51.1875 C8.82703125 50.465625 8.4196875 49.74375 8 49 C7.34 49 6.68 49 6 49 C5.67 48.01 5.34 47.02 5 46 C3.515 45.505 3.515 45.505 2 45 C0.12175109 46.87824891 0.60897603 50.03935276 0.4375 52.5625 C0.35371094 53.76003906 0.26992188 54.95757812 0.18359375 56.19140625 C0.12300781 57.11824219 0.06242187 58.04507813 0 59 C-2.31243792 59.02685412 -4.6249627 59.04632841 -6.9375 59.0625 C-8.22527344 59.07410156 -9.51304687 59.08570313 -10.83984375 59.09765625 C-14 59 -14 59 -15 58 C-15.09370624 56.22008076 -15.11744271 54.43643261 -15.11352539 52.65405273 C-15.11344986 51.5129454 -15.11337433 50.37183807 -15.11329651 49.19615173 C-15.10813522 47.9545076 -15.10297394 46.71286346 -15.09765625 45.43359375 C-15.0962413 44.16983414 -15.09482635 42.90607452 -15.09336853 41.60401917 C-15.08870582 38.23875111 -15.0797148 34.8735501 -15.06866455 31.50830078 C-15.05844846 28.0765033 -15.05387049 24.64469891 -15.04882812 21.21289062 C-15.0377738 14.47524176 -15.0210171 7.73762475 -15 1 C-12 0 -12 0 0 0 Z " fill="#009AD9" transform="translate(291,32)"/>
<path d="M0 0 C2.12493141 -0.02693575 4.24995912 -0.04636628 6.375 -0.0625 C7.55835937 -0.07410156 8.74171875 -0.08570313 9.9609375 -0.09765625 C13 0 13 0 15 1 C14.87625 2.2375 14.7525 3.475 14.625 4.75 C14.63764529 12.76711545 18.95230293 20.21561965 24.375 25.9375 C32.18307384 33.02004486 39.48189176 36.41247483 50 36 C51.44207941 38.88415883 51.09394887 41.41721528 51.0625 44.625 C51.05347656 45.81351563 51.04445312 47.00203125 51.03515625 48.2265625 C51.02355469 49.14179687 51.01195312 50.05703125 51 51 C49.906875 51.20625 48.81375 51.4125 47.6875 51.625 C43.78172441 52.64969775 43.78172441 52.64969775 42.125 56.0625 C41.75375 57.031875 41.3825 58.00125 41 59 C40 60 40 60 36.0625 60.375 C29.65874058 60.33395026 23.5219148 57.5219148 19 53 C19.19921875 50.35546875 19.19921875 50.35546875 19.6875 47.1875 C20.30083735 42.26738724 20.30083735 42.26738724 17.875 38.0625 C16.92625 37.381875 15.9775 36.70125 15 36 C13.33333333 34.33333333 11.66666667 32.66666667 10 31 C6.9254644 31.7763932 6.9254644 31.7763932 5 34 C1.375 34.125 1.375 34.125 -2 34 C-2.98163422 32.06374902 -3.96022454 30.12595461 -4.9375 28.1875 C-5.48277344 27.10855469 -6.02804688 26.02960938 -6.58984375 24.91796875 C-8.85837047 20.22381513 -9.78961908 16.17038248 -9 11 C-7.04662679 8.90710014 -5.47250916 8.1755034 -2.8125 7.1875 C-2.214375 6.795625 -1.61625 6.40375 -1 6 C-0.60332918 4.01159276 -0.26568807 2.01010471 0 0 Z M-1 32 C-1 32.33 -1 32.66 -1 33 C0.65 33 2.3 33 4 33 C4 32.67 4 32.34 4 32 C2.35 32 0.7 32 -1 32 Z " fill="#1D3978" transform="translate(9,64)"/>
<path d="M0 0 C1.18851563 0.00902344 2.37703125 0.01804688 3.6015625 0.02734375 C4.51679688 0.03894531 5.43203125 0.05054688 6.375 0.0625 C6.39481934 0.89499268 6.41463867 1.72748535 6.43505859 2.58520508 C6.51320742 5.677265 6.59990206 8.76893383 6.69238281 11.8605957 C6.74944092 13.8554536 6.79664442 15.8505854 6.84375 17.84570312 C6.88242188 19.09931641 6.92109375 20.35292969 6.9609375 21.64453125 C6.9923584 22.80186768 7.0237793 23.9592041 7.05615234 25.15161133 C7.16971033 28.25377028 7.16971033 28.25377028 9.375 31.0625 C14.02645592 31.44274775 14.02645592 31.44274775 18.375 30.0625 C19.45455212 26.82384365 19.57941741 24.27094162 19.69140625 20.86328125 C19.73330078 19.65478516 19.77519531 18.44628906 19.81835938 17.20117188 C19.85767578 15.93853516 19.89699219 14.67589844 19.9375 13.375 C19.98068359 12.10076172 20.02386719 10.82652344 20.06835938 9.51367188 C20.17454789 6.36341273 20.27528813 3.2129708 20.375 0.0625 C24.665 0.0625 28.955 0.0625 33.375 0.0625 C33.375 13.9225 33.375 27.7825 33.375 42.0625 C30.075 42.0625 26.775 42.0625 23.375 42.0625 C22.715 41.0725 22.055 40.0825 21.375 39.0625 C20.8903125 39.35125 20.405625 39.64 19.90625 39.9375 C15.00255885 42.65339048 10.98426618 44.15831409 5.375 43.0625 C0.98782153 41.44782929 -2.42372995 39.47898148 -5.625 36.0625 C-6.285 35.4025 -6.945 34.7425 -7.625 34.0625 C-8.71045558 30.18354846 -8.74096862 26.45962699 -8.72265625 22.44921875 C-8.71943359 21.20205078 -8.71621094 19.95488281 -8.71289062 18.66992188 C-8.70032227 16.72956055 -8.70032227 16.72956055 -8.6875 14.75 C-8.68298828 13.43708984 -8.67847656 12.12417969 -8.67382812 10.77148438 C-8.66205949 7.5351099 -8.6456176 4.29882822 -8.625 1.0625 C-5.74084117 -0.37957941 -3.20778472 -0.03144887 0 0 Z M-6.625 28.0625 C-6.625 29.7125 -6.625 31.3625 -6.625 33.0625 C-6.295 33.0625 -5.965 33.0625 -5.625 33.0625 C-5.625 31.4125 -5.625 29.7625 -5.625 28.0625 C-5.955 28.0625 -6.285 28.0625 -6.625 28.0625 Z " fill="#009AD9" transform="translate(157.625,48.9375)"/>
<path d="M0 0 C2.52090778 -0.0272367 5.04151457 -0.04695207 7.5625 -0.0625 C8.61920898 -0.07506836 8.61920898 -0.07506836 9.69726562 -0.08789062 C14.21636482 -0.10871597 18.54776535 0.11412533 23 1 C24.125 2.75 24.125 2.75 25 5 C25.83660156 5.71027344 26.67320312 6.42054687 27.53515625 7.15234375 C30.63083668 10.72881131 30.58899713 13.33226774 30.3125 17.8125 C30.209375 20.184375 30.10625 22.55625 30 25 C21.42 25.33 12.84 25.66 4 26 C6.16666667 31.83333333 6.16666667 31.83333333 9 33 C15.89724976 33.67799052 21.61767873 32.58992747 28 30 C27.93037672 33.72801013 27.74586206 37.34095205 27 41 C22.478038 45.15531643 16.85256566 45.17536195 10.9375 45.25 C9.70902344 45.27578125 8.48054688 45.3015625 7.21484375 45.328125 C4 45 4 45 2.21484375 43.55859375 C1.81394531 43.04425781 1.41304687 42.52992187 1 42 C-0.175625 41.4121875 -0.175625 41.4121875 -1.375 40.8125 C-6.00154042 37.61798399 -8.9844014 32.53289652 -10 27 C-10.72187242 18.83728875 -9.70077421 12.07173231 -4.4375 5.625 C-2.98371019 4.05938021 -1.51073991 2.51073991 0 1 C0 0.67 0 0.34 0 0 Z M5 11 C5 11.99 5 12.98 5 14 C8.3 14 11.6 14 15 14 C15.33 13.01 15.66 12.02 16 11 C14.12226736 8.69253586 14.12226736 8.69253586 11.0625 8.75 C7.82717213 8.76482246 7.82717213 8.76482246 5 11 Z M16 12 C17 14 17 14 17 14 Z M4 14 C5 16 5 16 5 16 Z M17 14 C18 17 18 17 18 17 Z M6 15 C6 15.33 6 15.66 6 16 C9.3 16 12.6 16 16 16 C16 15.67 16 15.34 16 15 C12.7 15 9.4 15 6 15 Z " fill="#009AD9" transform="translate(241,48)"/>
<path d="M0 0 C2.64 0 5.28 0 8 0 C8 3.3 8 6.6 8 10 C11.96 10 15.92 10 20 10 C20 12.97 20 15.94 20 19 C16.04 19 12.08 19 8 19 C8.33 26.26 8.66 33.52 9 41 C12.63 41 16.26 41 20 41 C20 44.3 20 47.6 20 51 C14.85474487 53.1108739 10.45494948 53.29295099 5 53 C4.071875 52.95875 3.14375 52.9175 2.1875 52.875 C-1.24419396 51.50232241 -2.28766786 49.1800454 -4 46 C-4.75 43.125 -4.75 43.125 -5 41 C-5.66 41 -6.32 41 -7 41 C-7 34.4 -7 27.8 -7 21 C-7.66 20.67 -8.32 20.34 -9 20 C-10 19 -10 19 -10.1875 16.0625 C-10 13 -10 13 -8 11 C-7.01773438 10.58621094 -7.01773438 10.58621094 -6.015625 10.1640625 C-3.37163783 8.63710867 -2.87097476 7.1774369 -1.75 4.375 C-1.41484375 3.55773438 -1.0796875 2.74046875 -0.734375 1.8984375 C-0.49203125 1.27195313 -0.2496875 0.64546875 0 0 Z " fill="#009AD9" transform="translate(207,39)"/>
<path d="M0 0 C5.78302531 0.19520761 11.19525427 2.54411283 16.125 5.4375 C19.07301933 9.58066231 19.27967798 12.32868509 18.625 17.1875 C18.39296875 18.29351563 18.39296875 18.29351563 18.15625 19.421875 C17.9042033 21.56193846 17.9042033 21.56193846 19.59375 23.203125 C20.0990625 23.61046875 20.604375 24.0178125 21.125 24.4375 C19.56477363 28.26714655 17.24944429 30.75940489 14.125 33.4375 C9.79310244 33.4375 9.75291457 33.41946749 6.875 30.75 C0.90084201 25.95015169 -6.61124479 24.42974354 -13.875 22.4375 C-13.875 18.1475 -13.875 13.8575 -13.875 9.4375 C-10.41 8.9425 -10.41 8.9425 -6.875 8.4375 C-6.58625 7.48875 -6.2975 6.54 -6 5.5625 C-4.6190043 1.72640084 -4.08244525 0.62124167 0 0 Z M17.125 12.4375 C18.125 14.4375 18.125 14.4375 18.125 14.4375 Z M16.125 15.4375 C16.125 17.0875 16.125 18.7375 16.125 20.4375 C16.455 20.4375 16.785 20.4375 17.125 20.4375 C17.125 18.7875 17.125 17.1375 17.125 15.4375 C16.795 15.4375 16.465 15.4375 16.125 15.4375 Z " fill="#1D3978" transform="translate(77.875,-0.43749999999999994)"/>
<path d="M0 0 C7.48291572 6.15034169 7.48291572 6.15034169 10 10 C8.74458443 12.51083114 7.49936512 12.87125446 5 14 C4.92974445 17.02098869 4.90110955 19.63140832 5.6875 22.5625 C6 25 6 25 5.1875 27.5625 C1.40299516 31.77951968 -3.7857111 33.5146208 -9.328125 34.3515625 C-12.19217645 34.46824608 -14.37654143 34.40847285 -16.8125 32.8125 C-18 31 -18 31 -19.375 28.375 C-21.00958358 25.39268479 -21.00958358 25.39268479 -26 25 C-26 20.71 -26 16.42 -26 12 C-22.04 11.01 -18.08 10.02 -14 9 C-14 8.34 -14 7.68 -14 7 C-12.989375 6.773125 -11.97875 6.54625 -10.9375 6.3125 C-6.56981665 5.09133139 -3.56044067 2.76115807 0 0 Z " fill="#1D3978" transform="translate(90,90)"/>
<path d="M0 0 C0.33 0 0.66 0 1 0 C1 13.86 1 27.72 1 42 C0.67 42 0.34 42 0 42 C0 28.14 0 14.28 0 0 Z " fill="#009AD9" transform="translate(192,49)"/>
<path d="M0 0 C3.3 0 6.6 0 10 0 C10 0.33 10 0.66 10 1 C7.03 1 4.06 1 1 1 C1 7.27 1 13.54 1 20 C3.64 20 6.28 20 9 20 C9 20.33 9 20.66 9 21 C6.03 21 3.06 21 0 21 C0 14.07 0 7.14 0 0 Z " fill="#009AD9" transform="translate(216,59)"/>
<path d="M0 0 C0.33 0 0.66 0 1 0 C1.33 9.24 1.66 18.48 2 28 C1.34 28.33 0.68 28.66 0 29 C0 19.43 0 9.86 0 0 Z " fill="#009BD9" transform="translate(292,33)"/>
<path d="M0 0 C0.33 0 0.66 0 1 0 C1 9.24 1 18.48 1 28 C0.67 28 0.34 28 0 28 C0 18.76 0 9.52 0 0 Z " fill="#009AD9" transform="translate(165,49)"/>
<path d="M0 0 C8.58 0 17.16 0 26 0 C26 0.33 26 0.66 26 1 C17.42 1 8.84 1 0 1 C0 0.67 0 0.34 0 0 Z " fill="#009AD9" transform="translate(59,77)"/>
<path d="M0 0 C7.92 0 15.84 0 24 0 C24 0.33 24 0.66 24 1 C16.41 1 8.82 1 1 1 C0.67 1.66 0.34 2.32 0 3 C0 2.01 0 1.02 0 0 Z " fill="#009ADA" transform="translate(246,74)"/>
<path d="M0 0 C4.29 0 8.58 0 13 0 C13 0.66 13 1.32 13 2 C9.04 2 5.08 2 1 2 C0.67 1.34 0.34 0.68 0 0 Z " fill="#1D3978" transform="translate(9,61)"/>
<path d="M0 0 C0.33 0 0.66 0 1 0 C1 4.29 1 8.58 1 13 C0.34 13 -0.32 13 -1 13 C-1.02686553 11.02090602 -1.04633375 9.04171029 -1.0625 7.0625 C-1.07410156 5.96035156 -1.08570313 4.85820312 -1.09765625 3.72265625 C-1 1 -1 1 0 0 Z " fill="#1D3A78" transform="translate(62,9)"/>
<path d="M0 0 C0.33 0 0.66 0 1 0 C1 4.29 1 8.58 1 13 C0.34 12.67 -0.32 12.34 -1 12 C-1.02687279 10.18757948 -1.04633715 8.37504767 -1.0625 6.5625 C-1.07410156 5.55316406 -1.08570313 4.54382813 -1.09765625 3.50390625 C-1 1 -1 1 0 0 Z " fill="#1D3978" transform="translate(62,102)"/>
<path d="M0 0 C0.33 0 0.66 0 1 0 C1 4.62 1 9.24 1 14 C0.67 14 0.34 14 0 14 C-0.77916092 8.97874074 -1.13016601 5.02296004 0 0 Z " fill="#009AD9" transform="translate(116,63)"/>
<path d="M0 0 C0.33 0 0.66 0 1 0 C1 1.98 1 3.96 1 6 C3.97 6 6.94 6 10 6 C10 6.33 10 6.66 10 7 C6.7 7 3.4 7 0 7 C0 4.69 0 2.38 0 0 Z " fill="#009BD9" transform="translate(216,41)"/>
<path d="M0 0 C-3.01490557 1.00496852 -5.04181692 1.10335303 -8.1875 1.0625 C-9.53908203 1.04896484 -9.53908203 1.04896484 -10.91796875 1.03515625 C-11.60503906 1.02355469 -12.29210937 1.01195313 -13 1 C-13 0.67 -13 0.34 -13 0 C-11.58456585 -0.19658808 -10.16755969 -0.38187546 -8.75 -0.5625 C-7.96109375 -0.66691406 -7.1721875 -0.77132812 -6.359375 -0.87890625 C-3.99467126 -1.00027349 -2.2488963 -0.69633257 0 0 Z " fill="#009AD9" transform="translate(263,80)"/>
<path d="M0 0 C4.29 0 8.58 0 13 0 C13 0.33 13 0.66 13 1 C8.71 1 4.42 1 0 1 C0 0.67 0 0.34 0 0 Z " fill="#009BD9" transform="translate(307,92)"/>
<path d="M0 0 C0.33 0 0.66 0 1 0 C1 4.29 1 8.58 1 13 C0.67 13 0.34 13 0 13 C0 8.71 0 4.42 0 0 Z " fill="#009BD9" transform="translate(292,78)"/>
<path d="M0 0 C0.33 0 0.66 0 1 0 C1 4.29 1 8.58 1 13 C0.67 13 0.34 13 0 13 C0 8.71 0 4.42 0 0 Z " fill="#009AD9" transform="translate(127,63)"/>
<path d="M0 0 C4.29 0 8.58 0 13 0 C13 0.33 13 0.66 13 1 C8.71 1 4.42 1 0 1 C0 0.67 0 0.34 0 0 Z " fill="#009AD9" transform="translate(305,47)"/>
<path d="M0 0 C3.96 0 7.92 0 12 0 C12 0.33 12 0.66 12 1 C8.04 1 4.08 1 0 1 C0 0.67 0 0.34 0 0 Z " fill="#009AD9" transform="translate(279,92)"/>
<path d="M0 0 C0.33 0 0.66 0 1 0 C1 3.96 1 7.92 1 12 C0.67 12 0.34 12 0 12 C0 8.04 0 4.08 0 0 Z " fill="#009AD9" transform="translate(92,56)"/>
<path d="M0 0 C3.96 0 7.92 0 12 0 C12 0.33 12 0.66 12 1 C8.04 1 4.08 1 0 1 C0 0.67 0 0.34 0 0 Z " fill="#009BD9" transform="translate(179,47)"/>
<path d="M0 0 C3.96 0 7.92 0 12 0 C12 0.33 12 0.66 12 1 C8.04 1 4.08 1 0 1 C0 0.67 0 0.34 0 0 Z " fill="#009BDA" transform="translate(152,47)"/>
<path d="M0 0 C3.63 0 7.26 0 11 0 C11 0.33 11 0.66 11 1 C7.37 1 3.74 1 0 1 C0 0.67 0 0.34 0 0 Z " fill="#009BD9" transform="translate(246,46)"/>
<path d="M0 0 C3.3 0 6.6 0 10 0 C10 0.33 10 0.66 10 1 C6.7 1 3.4 1 0 1 C0 0.67 0 0.34 0 0 Z " fill="#009AD9" transform="translate(249,93)"/>
<path d="M0 0 C0.33 0 0.66 0 1 0 C1 3.3 1 6.6 1 10 C0.67 10 0.34 10 0 10 C0 6.7 0 3.4 0 0 Z " fill="#009BDA" transform="translate(272,63)"/>
<path d="M0 0 C3.3 0 6.6 0 10 0 C10 0.33 10 0.66 10 1 C6.7 1 3.4 1 0 1 C0 0.67 0 0.34 0 0 Z " fill="#009ADA" transform="translate(280,30)"/>
<path d="M0 0 C3.3 0 6.6 0 10 0 C10 0.33 10 0.66 10 1 C6.7 1 3.4 1 0 1 C0 0.67 0 0.34 0 0 Z " fill="#009ADA" transform="translate(130,30)"/>
<path d="M0 0 C2.97 0 5.94 0 9 0 C9 0.33 9 0.66 9 1 C6.03 1 3.06 1 0 1 C0 0.67 0 0.34 0 0 Z " fill="#009AD9" transform="translate(132,92)"/>
<path d="M0 0 C0.33 0 0.66 0 1 0 C1 2.97 1 5.94 1 9 C0.67 9 0.34 9 0 9 C0 6.03 0 3.06 0 0 Z " fill="#009BD9" transform="translate(228,49)"/>
<path d="M0 0 C2.97 0 5.94 0 9 0 C9 0.33 9 0.66 9 1 C6.03 1 3.06 1 0 1 C0 0.67 0 0.34 0 0 Z " fill="#009AD9" transform="translate(114,46)"/>
<path d="M0 0 C0.66 0.33 1.32 0.66 2 1 C0.35 2.32 -1.3 3.64 -3 5 C-1.125 1.125 -1.125 1.125 0 0 Z " fill="#1D3978" transform="translate(98,27)"/>
<path d="M0 0 C2.64 0 5.28 0 8 0 C8 0.33 8 0.66 8 1 C5.36 1 2.72 1 0 1 C0 0.67 0 0.34 0 0 Z " fill="#009AD9" transform="translate(213,93)"/>
<path d="M0 0 C2.64 0 5.28 0 8 0 C8 0.33 8 0.66 8 1 C5.36 1 2.72 1 0 1 C0 0.67 0 0.34 0 0 Z " fill="#009BD9" transform="translate(58,93)"/>
<path d="M0 0 C2.64 0 5.28 0 8 0 C8 0.33 8 0.66 8 1 C5.36 1 2.72 1 0 1 C0 0.67 0 0.34 0 0 Z " fill="#009BD9" transform="translate(182,92)"/>
<path d="M0 0 C0.33 0 0.66 0 1 0 C1 2.64 1 5.28 1 8 C0.67 8 0.34 8 0 8 C0 5.36 0 2.72 0 0 Z " fill="#009AD9" transform="translate(228,82)"/>
<path d="M0 0 C0.33 0 0.66 0 1 0 C1 2.64 1 5.28 1 8 C0.67 8 0.34 8 0 8 C0 5.36 0 2.72 0 0 Z " fill="#009AD9" transform="translate(269,80)"/>
<path d="M0 0 C2.64 0 5.28 0 8 0 C8 0.33 8 0.66 8 1 C5.36 1 2.72 1 0 1 C0 0.67 0 0.34 0 0 Z " fill="#009BD9" transform="translate(118,79)"/>
<path d="M0 0 C0.33 0 0.66 0 1 0 C1 2.64 1 5.28 1 8 C0.67 8 0.34 8 0 8 C0 5.36 0 2.72 0 0 Z " fill="#009AD9" transform="translate(30,58)"/>
<path d="M0 0 C2.31 0 4.62 0 7 0 C7 0.33 7 0.66 7 1 C4.69 1 2.38 1 0 1 C0 0.67 0 0.34 0 0 Z " fill="#009BDA" transform="translate(163,93)"/>
<path d="M0 0 C2.31 0 4.62 0 7 0 C7 0.33 7 0.66 7 1 C4.69 1 2.38 1 0 1 C0 0.67 0 0.34 0 0 Z " fill="#009ADA" transform="translate(167,79)"/>
<path d="M0 0 C0.33 0 0.66 0 1 0 C1 2.31 1 4.62 1 7 C0.67 7 0.34 7 0 7 C0 4.69 0 2.38 0 0 Z " fill="#009AD9" transform="translate(46,59)"/>
<path d="M0 0 C0.33 0 0.66 0 1 0 C1 1.98 1 3.96 1 6 C0.67 6 0.34 6 0 6 C0 4.02 0 2.04 0 0 Z " fill="#1D3978" transform="translate(26,111)"/>
<path d="M0 0 C0.33 0 0.66 0 1 0 C1 1.98 1 3.96 1 6 C0.67 6 0.34 6 0 6 C0 4.02 0 2.04 0 0 Z " fill="#1D3978" transform="translate(95,104)"/>
<path d="M0 0 C1.98 0 3.96 0 6 0 C6 0.33 6 0.66 6 1 C4.02 1 2.04 1 0 1 C0 0.67 0 0.34 0 0 Z " fill="#009AD9" transform="translate(115,93)"/>
<path d="M0 0 C1.98 0 3.96 0 6 0 C6 0.33 6 0.66 6 1 C4.02 1 2.04 1 0 1 C0 0.67 0 0.34 0 0 Z " fill="#009AD9" transform="translate(249,58)"/>
<path d="M0 0 C1.65 0 3.3 0 5 0 C5 0.33 5 0.66 5 1 C3.35 1 1.7 1 0 1 C0 0.67 0 0.34 0 0 Z " fill="#1D3978" transform="translate(64,116)"/>
<path d="M0 0 C1.65 0 3.3 0 5 0 C5 0.33 5 0.66 5 1 C3.35 1 1.7 1 0 1 C0 0.67 0 0.34 0 0 Z " fill="#1D3979" transform="translate(64,100)"/>
<path d="M0 0 C0.33 0 0.66 0 1 0 C1 1.65 1 3.3 1 5 C0.67 5 0.34 5 0 5 C0 3.35 0 1.7 0 0 Z " fill="#1D3978" transform="translate(24,69)"/>
<path d="M0 0 C0.33 0 0.66 0 1 0 C1 1.65 1 3.3 1 5 C0.67 5 0.34 5 0 5 C0 3.35 0 1.7 0 0 Z " fill="#1D3978" transform="translate(7,65)"/>
<path d="M0 0 C0.33 0 0.66 0 1 0 C1 1.65 1 3.3 1 5 C0.67 5 0.34 5 0 5 C0 3.35 0 1.7 0 0 Z " fill="#1D3978" transform="translate(7,55)"/>
<path d="M0 0 C1.65 0 3.3 0 5 0 C5 0.33 5 0.66 5 1 C3.35 1 1.7 1 0 1 C0 0.67 0 0.34 0 0 Z " fill="#009AD9" transform="translate(56,47)"/>
<path d="M0 0 C1.65 0 3.3 0 5 0 C5 0.33 5 0.66 5 1 C3.35 1 1.7 1 0 1 C0 0.67 0 0.34 0 0 Z " fill="#1E3978" transform="translate(8,26)"/>
<path d="M0 0 C1.65 0 3.3 0 5 0 C5 0.33 5 0.66 5 1 C3.35 1 1.7 1 0 1 C0 0.67 0 0.34 0 0 Z " fill="#1E3A79" transform="translate(64,7)"/>
<path d="M0 0 C1.65 0 3.3 0 5 0 C5 0.33 5 0.66 5 1 C3.35 1 1.7 1 0 1 C0 0.67 0 0.34 0 0 Z " fill="#1D3978" transform="translate(54,7)"/>
<path d="M0 0 C4 1 4 1 4 1 Z " fill="#1E3A78" transform="translate(55,116)"/>
<path d="M0 0 C4 1 4 1 4 1 Z " fill="#1E3978" transform="translate(69,99)"/>
<path d="M0 0 C4 1 4 1 4 1 Z " fill="#1D3A79" transform="translate(50,99)"/>
<path d="M0 0 C1 4 1 4 1 4 Z " fill="#009BDA" transform="translate(201,81)"/>
<path d="M0 0 C0.99 0.495 0.99 0.495 2 1 C1.67 1.66 1.34 2.32 1 3 C0.67 2.01 0.34 1.02 0 0 Z " fill="#009AD9" transform="translate(311,75)"/>
<path d="M0 0 C0.99 0.495 0.99 0.495 2 1 C1.67 1.66 1.34 2.32 1 3 C0.67 2.01 0.34 1.02 0 0 Z " fill="#009AD9" transform="translate(308,71)"/>
<path d="M0 0 C0 3 0 3 0 3 Z " fill="#009AD9" transform="translate(313,57)"/>
<path d="M0 0 C4 1 4 1 4 1 Z " fill="#009BD9" transform="translate(257,47)"/>
<path d="M0 0 C4 1 4 1 4 1 Z " fill="#009BDA" transform="translate(63,47)"/>
<path d="M0 0 C4 1 4 1 4 1 Z " fill="#1D3978" transform="translate(15,28)"/>
<path d="M0 0 C4 1 4 1 4 1 Z " fill="#1D3978" transform="translate(68,24)"/>
<path d="M0 0 C4 1 4 1 4 1 Z " fill="#1D3978" transform="translate(64,23)"/>
<path d="" fill="#1D3979" transform="translate(0,0)"/>
<path d="" fill="#1E3A79" transform="translate(0,0)"/>
<path d="" fill="#1D3978" transform="translate(0,0)"/>
<path d="M0 0 C3 1 3 1 3 1 Z " fill="#1D3A78" transform="translate(73,98)"/>
<path d="M0 0 C3 1 3 1 3 1 Z " fill="#1E3979" transform="translate(45,97)"/>
<path d="M0 0 C3 1 3 1 3 1 Z " fill="#1E3978" transform="translate(16,95)"/>
<path d="M0 0 C3 1 3 1 3 1 Z " fill="#009BDA" transform="translate(221,92)"/>
<path d="M0 0 C3 1 3 1 3 1 Z " fill="#009BD9" transform="translate(160,92)"/>
<path d="M0 0 C3 1 3 1 3 1 Z " fill="#009BDA" transform="translate(54,92)"/>
<path d="M0 0 C3 1 3 1 3 1 Z " fill="#009BDA" transform="translate(263,78)"/>
<path d="M0 0 C3 1 3 1 3 1 Z " fill="#009BDA" transform="translate(56,76)"/>
<path d="" fill="#1D3A78" transform="translate(0,0)"/>
<path d="" fill="#009BDA" transform="translate(0,0)"/>
<path d="" fill="#009BD9" transform="translate(0,0)"/>
<path d="" fill="#009BD9" transform="translate(0,0)"/>
<path d="" fill="#009BDA" transform="translate(0,0)"/>
<path d="M0 0 C3 1 3 1 3 1 Z " fill="#009AD9" transform="translate(243,47)"/>
<path d="M0 0 C3 1 3 1 3 1 Z " fill="#009BDA" transform="translate(123,47)"/>
<path d="" fill="#009BDA" transform="translate(0,0)"/>
<path d="M0 0 C3 1 3 1 3 1 Z " fill="#009AD9" transform="translate(60,30)"/>
<path d="M0 0 C3 1 3 1 3 1 Z " fill="#1D3A79" transform="translate(75,26)"/>
<path d="M0 0 C3 1 3 1 3 1 Z " fill="#1D3978" transform="translate(72,25)"/>
<path d="M0 0 C3 1 3 1 3 1 Z " fill="#1E3A78" transform="translate(48,25)"/>
<path d="" fill="#1D3A78" transform="translate(0,0)"/>
<path d="" fill="#1E3A79" transform="translate(0,0)"/>
<path d="M0 0 C2 1 2 1 2 1 Z " fill="#1E3A78" transform="translate(31,121)"/>
<path d="" fill="#1E3A78" transform="translate(0,0)"/>
<path d="M0 0 C2 1 2 1 2 1 Z " fill="#1E3A78" transform="translate(53,117)"/>
<path d="" fill="#1D3978" transform="translate(0,0)"/>
<path d="" fill="#1E3A79" transform="translate(0,0)"/>
<path d="M0 0 C2 1 2 1 2 1 Z " fill="#1E3A79" transform="translate(96,103)"/>
<path d="" fill="#1D3978" transform="translate(0,0)"/>
<path d="M0 0 C2 1 2 1 2 1 Z " fill="#1E3A79" transform="translate(48,98)"/>
<path d="M0 0 C2 1 2 1 2 1 Z " fill="#1E3979" transform="translate(43,96)"/>
<path d="M0 0 C2 1 2 1 2 1 Z " fill="#1E3A78" transform="translate(41,95)"/>
<path d="M0 0 C2 1 2 1 2 1 Z " fill="#009BDA" transform="translate(210,92)"/>
<path d="M0 0 C2 1 2 1 2 1 Z " fill="#009BDA" transform="translate(171,92)"/>
<path d="" fill="#009AD9" transform="translate(0,0)"/>
<path d="" fill="#009BD9" transform="translate(0,0)"/>
<path d="" fill="#1D3979" transform="translate(0,0)"/>
<path d="" fill="#1E3A79" transform="translate(0,0)"/>
<path d="" fill="#009BD9" transform="translate(0,0)"/>
<path d="" fill="#1D3978" transform="translate(0,0)"/>
<path d="M0 0 C2 1 2 1 2 1 Z " fill="#009BDA" transform="translate(248,79)"/>
<path d="M0 0 C2 1 2 1 2 1 Z " fill="#009BDA" transform="translate(225,78)"/>
<path d="M0 0 C2 1 2 1 2 1 Z " fill="#009AD9" transform="translate(174,78)"/>
<path d="" fill="#009BDA" transform="translate(0,0)"/>
<path d="" fill="#009BDA" transform="translate(0,0)"/>
<path d="" fill="#009BDA" transform="translate(0,0)"/>
<path d="" fill="#1D3979" transform="translate(0,0)"/>
<path d="M0 0 C2 1 2 1 2 1 Z " fill="#009BD9" transform="translate(266,77)"/>
<path d="M0 0 C2 1 2 1 2 1 Z " fill="#009AD9" transform="translate(52,74)"/>
<path d="" fill="#009AD9" transform="translate(0,0)"/>
<path d="" fill="#009BDA" transform="translate(0,0)"/>
<path d="" fill="#009BDA" transform="translate(0,0)"/>
<path d="M0 0 C2 1 2 1 2 1 Z " fill="#009ADA" transform="translate(124,60)"/>
<path d="" fill="#009ADA" transform="translate(0,0)"/>
<path d="" fill="#009AD9" transform="translate(0,0)"/>
<path d="M0 0 C2 1 2 1 2 1 Z " fill="#009BDA" transform="translate(109,48)"/>
<path d="M0 0 C2 1 2 1 2 1 Z " fill="#009BDA" transform="translate(67,48)"/>
<path d="M0 0 C2 1 2 1 2 1 Z " fill="#009BDA" transform="translate(54,48)"/>
<path d="" fill="#009ADA" transform="translate(0,0)"/>
<path d="" fill="#009AD9" transform="translate(0,0)"/>
<path d="" fill="#009AD9" transform="translate(0,0)"/>
<path d="" fill="#1E3A79" transform="translate(0,0)"/>
<path d="M0 0 C2 1 2 1 2 1 Z " fill="#009BDA" transform="translate(52,32)"/>
<path d="M0 0 C2 1 2 1 2 1 Z " fill="#1E3A78" transform="translate(40,29)"/>
<path d="M0 0 C2 1 2 1 2 1 Z " fill="#1D3978" transform="translate(80,28)"/>
<path d="M0 0 C2 1 2 1 2 1 Z " fill="#1E3979" transform="translate(78,27)"/>
<path d="M0 0 C2 1 2 1 2 1 Z " fill="#1E3A79" transform="translate(13,27)"/>
<path d="M0 0 C2 1 2 1 2 1 Z " fill="#1E3A78" transform="translate(6,27)"/>
<path d="" fill="#1E3A79" transform="translate(0,0)"/>
<path d="" fill="#1E3A79" transform="translate(0,0)"/>
<path d="" fill="#1D3978" transform="translate(0,0)"/>
<path d="M0 0 C2 1 2 1 2 1 Z " fill="#1E3A79" transform="translate(90,2)"/>
<path d="" fill="#1D3978" transform="translate(0,0)"/>
<path d="" fill="#1D3A79" transform="translate(0,0)"/>
<path d="" fill="#1D3979" transform="translate(0,0)"/>
<path d="" fill="#1E3A79" transform="translate(0,0)"/>
<path d="" fill="#1E3978" transform="translate(0,0)"/>
<path d="" fill="#1D3A79" transform="translate(0,0)"/>
<path d="" fill="#1E3978" transform="translate(0,0)"/>
<path d="" fill="#1E3A78" transform="translate(0,0)"/>
<path d="" fill="#1E3979" transform="translate(0,0)"/>
<path d="" fill="#1E3A79" transform="translate(0,0)"/>
<path d="" fill="#1E3A79" transform="translate(0,0)"/>
<path d="" fill="#1E3A79" transform="translate(0,0)"/>
<path d="" fill="#1D3979" transform="translate(0,0)"/>
<path d="" fill="#1E3A79" transform="translate(0,0)"/>
<path d="" fill="#1E3979" transform="translate(0,0)"/>
<path d="" fill="#1E3979" transform="translate(0,0)"/>
<path d="" fill="#1D3979" transform="translate(0,0)"/>
<path d="" fill="#1D3A79" transform="translate(0,0)"/>
<path d="" fill="#1E3A79" transform="translate(0,0)"/>
<path d="" fill="#1E3A79" transform="translate(0,0)"/>
<path d="" fill="#1D3978" transform="translate(0,0)"/>
<path d="" fill="#1E3A79" transform="translate(0,0)"/>
<path d="" fill="#1E3A79" transform="translate(0,0)"/>
<path d="" fill="#1E3A79" transform="translate(0,0)"/>
<path d="" fill="#1D3A79" transform="translate(0,0)"/>
<path d="" fill="#1E3A79" transform="translate(0,0)"/>
<path d="" fill="#1E3A79" transform="translate(0,0)"/>
<path d="" fill="#1E3979" transform="translate(0,0)"/>
<path d="" fill="#1E3978" transform="translate(0,0)"/>
<path d="" fill="#1E3A79" transform="translate(0,0)"/>
<path d="" fill="#1E3979" transform="translate(0,0)"/>
<path d="" fill="#1E3A79" transform="translate(0,0)"/>
<path d="" fill="#1E3A79" transform="translate(0,0)"/>
<path d="" fill="#1E3A79" transform="translate(0,0)"/>
<path d="" fill="#1E3A79" transform="translate(0,0)"/>
<path d="" fill="#1D3978" transform="translate(0,0)"/>
<path d="" fill="#1E3A78" transform="translate(0,0)"/>
<path d="" fill="#1E3A79" transform="translate(0,0)"/>
<path d="" fill="#009BDA" transform="translate(0,0)"/>
<path d="" fill="#009BDA" transform="translate(0,0)"/>
<path d="" fill="#009BDA" transform="translate(0,0)"/>
<path d="" fill="#009BDA" transform="translate(0,0)"/>
<path d="" fill="#009BDA" transform="translate(0,0)"/>
<path d="" fill="#009BDA" transform="translate(0,0)"/>
<path d="" fill="#009ADA" transform="translate(0,0)"/>
<path d="" fill="#009BDA" transform="translate(0,0)"/>
<path d="" fill="#1E3A79" transform="translate(0,0)"/>
<path d="" fill="#009BDA" transform="translate(0,0)"/>
<path d="" fill="#009BDA" transform="translate(0,0)"/>
<path d="" fill="#1D3A78" transform="translate(0,0)"/>
<path d="" fill="#1E3A79" transform="translate(0,0)"/>
<path d="" fill="#009BDA" transform="translate(0,0)"/>
<path d="" fill="#1E3979" transform="translate(0,0)"/>
<path d="" fill="#1E3A79" transform="translate(0,0)"/>
<path d="" fill="#009BD9" transform="translate(0,0)"/>
<path d="" fill="#009BD9" transform="translate(0,0)"/>
<path d="" fill="#1E3A79" transform="translate(0,0)"/>
<path d="" fill="#009AD9" transform="translate(0,0)"/>
<path d="" fill="#1E3A79" transform="translate(0,0)"/>
<path d="" fill="#009BDA" transform="translate(0,0)"/>
<path d="" fill="#009BDA" transform="translate(0,0)"/>
<path d="" fill="#009BDA" transform="translate(0,0)"/>
<path d="" fill="#1E3A78" transform="translate(0,0)"/>
<path d="" fill="#009BDA" transform="translate(0,0)"/>
<path d="" fill="#009BDA" transform="translate(0,0)"/>
<path d="" fill="#009BDA" transform="translate(0,0)"/>
<path d="" fill="#1D3A78" transform="translate(0,0)"/>
<path d="" fill="#009BDA" transform="translate(0,0)"/>
<path d="" fill="#009BDA" transform="translate(0,0)"/>
<path d="" fill="#009AD9" transform="translate(0,0)"/>
<path d="" fill="#009BDA" transform="translate(0,0)"/>
<path d="" fill="#009BDA" transform="translate(0,0)"/>
<path d="" fill="#009BD9" transform="translate(0,0)"/>
<path d="" fill="#009AD9" transform="translate(0,0)"/>
<path d="" fill="#009BDA" transform="translate(0,0)"/>
<path d="" fill="#009ADA" transform="translate(0,0)"/>
<path d="" fill="#009BDA" transform="translate(0,0)"/>
<path d="" fill="#009BDA" transform="translate(0,0)"/>
<path d="" fill="#009BDA" transform="translate(0,0)"/>
<path d="" fill="#009BDA" transform="translate(0,0)"/>
<path d="" fill="#009AD9" transform="translate(0,0)"/>
<path d="" fill="#009BDA" transform="translate(0,0)"/>
<path d="" fill="#009BD9" transform="translate(0,0)"/>
<path d="" fill="#1E3A79" transform="translate(0,0)"/>
<path d="" fill="#009BDA" transform="translate(0,0)"/>
<path d="" fill="#009BDA" transform="translate(0,0)"/>
<path d="" fill="#009BDA" transform="translate(0,0)"/>
<path d="" fill="#009BDA" transform="translate(0,0)"/>
<path d="" fill="#009BDA" transform="translate(0,0)"/>
<path d="" fill="#009BD9" transform="translate(0,0)"/>
<path d="" fill="#009BDA" transform="translate(0,0)"/>
<path d="" fill="#009BDA" transform="translate(0,0)"/>
<path d="" fill="#009BDA" transform="translate(0,0)"/>
<path d="" fill="#009BD9" transform="translate(0,0)"/>
<path d="" fill="#009ADA" transform="translate(0,0)"/>
<path d="" fill="#009BD9" transform="translate(0,0)"/>
<path d="" fill="#009AD9" transform="translate(0,0)"/>
<path d="" fill="#1D3978" transform="translate(0,0)"/>
<path d="" fill="#009BDA" transform="translate(0,0)"/>
<path d="" fill="#009BD9" transform="translate(0,0)"/>
<path d="" fill="#009ADA" transform="translate(0,0)"/>
<path d="" fill="#009BDA" transform="translate(0,0)"/>
<path d="" fill="#009BDA" transform="translate(0,0)"/>
<path d="" fill="#009BDA" transform="translate(0,0)"/>
<path d="" fill="#009BD9" transform="translate(0,0)"/>
<path d="" fill="#009BDA" transform="translate(0,0)"/>
<path d="" fill="#009BD9" transform="translate(0,0)"/>
<path d="" fill="#009BDA" transform="translate(0,0)"/>
<path d="" fill="#009BDA" transform="translate(0,0)"/>
<path d="" fill="#009BDA" transform="translate(0,0)"/>
<path d="" fill="#009BDA" transform="translate(0,0)"/>
<path d="" fill="#009BD9" transform="translate(0,0)"/>
<path d="" fill="#009BDA" transform="translate(0,0)"/>
<path d="" fill="#009BDA" transform="translate(0,0)"/>
<path d="" fill="#009BDA" transform="translate(0,0)"/>
<path d="" fill="#009BDA" transform="translate(0,0)"/>
<path d="" fill="#009AD9" transform="translate(0,0)"/>
<path d="" fill="#009BDA" transform="translate(0,0)"/>
<path d="" fill="#009BDA" transform="translate(0,0)"/>
<path d="" fill="#009BDA" transform="translate(0,0)"/>
<path d="" fill="#009BDA" transform="translate(0,0)"/>
<path d="" fill="#009AD9" transform="translate(0,0)"/>
<path d="" fill="#009BDA" transform="translate(0,0)"/>
<path d="" fill="#009BD9" transform="translate(0,0)"/>
<path d="" fill="#009BDA" transform="translate(0,0)"/>
<path d="" fill="#009BDA" transform="translate(0,0)"/>
<path d="" fill="#1E3A79" transform="translate(0,0)"/>
<path d="" fill="#009BD9" transform="translate(0,0)"/>
<path d="" fill="#009BDA" transform="translate(0,0)"/>
<path d="" fill="#009BDA" transform="translate(0,0)"/>
<path d="" fill="#009BDA" transform="translate(0,0)"/>
<path d="" fill="#009BDA" transform="translate(0,0)"/>
<path d="" fill="#009ADA" transform="translate(0,0)"/>
<path d="" fill="#009BD9" transform="translate(0,0)"/>
<path d="" fill="#009BDA" transform="translate(0,0)"/>
<path d="" fill="#009ADA" transform="translate(0,0)"/>
<path d="" fill="#009BDA" transform="translate(0,0)"/>
<path d="" fill="#009BDA" transform="translate(0,0)"/>
<path d="" fill="#009BDA" transform="translate(0,0)"/>
<path d="" fill="#009BD9" transform="translate(0,0)"/>
<path d="" fill="#009BDA" transform="translate(0,0)"/>
<path d="" fill="#009AD9" transform="translate(0,0)"/>
<path d="" fill="#009BDA" transform="translate(0,0)"/>
<path d="" fill="#009BDA" transform="translate(0,0)"/>
<path d="" fill="#009ADA" transform="translate(0,0)"/>
<path d="" fill="#009BDA" transform="translate(0,0)"/>
<path d="" fill="#009BDA" transform="translate(0,0)"/>
<path d="" fill="#009BDA" transform="translate(0,0)"/>
<path d="" fill="#009BDA" transform="translate(0,0)"/>
<path d="" fill="#009BDA" transform="translate(0,0)"/>
<path d="" fill="#009BDA" transform="translate(0,0)"/>
<path d="" fill="#009BDA" transform="translate(0,0)"/>
<path d="" fill="#009AD9" transform="translate(0,0)"/>
<path d="" fill="#009BDA" transform="translate(0,0)"/>
<path d="" fill="#009AD9" transform="translate(0,0)"/>
<path d="" fill="#009BDA" transform="translate(0,0)"/>
<path d="" fill="#009ADA" transform="translate(0,0)"/>
<path d="" fill="#009BDA" transform="translate(0,0)"/>
<path d="" fill="#009BDA" transform="translate(0,0)"/>
<path d="" fill="#009BDA" transform="translate(0,0)"/>
<path d="" fill="#1E3A79" transform="translate(0,0)"/>
<path d="" fill="#009BDA" transform="translate(0,0)"/>
<path d="" fill="#009BD9" transform="translate(0,0)"/>
<path d="" fill="#1E3A79" transform="translate(0,0)"/>
<path d="" fill="#009AD9" transform="translate(0,0)"/>
<path d="" fill="#009BD9" transform="translate(0,0)"/>
<path d="" fill="#009BDA" transform="translate(0,0)"/>
<path d="" fill="#1E3A79" transform="translate(0,0)"/>
<path d="" fill="#1D3979" transform="translate(0,0)"/>
<path d="" fill="#1E3A79" transform="translate(0,0)"/>
<path d="" fill="#1E3A79" transform="translate(0,0)"/>
<path d="" fill="#1E3A79" transform="translate(0,0)"/>
<path d="" fill="#009BDA" transform="translate(0,0)"/>
<path d="" fill="#1E3A79" transform="translate(0,0)"/>
<path d="" fill="#1E3A79" transform="translate(0,0)"/>
<path d="" fill="#1E3A79" transform="translate(0,0)"/>
<path d="" fill="#1E3A79" transform="translate(0,0)"/>
<path d="" fill="#1E3A79" transform="translate(0,0)"/>
<path d="" fill="#1E3A79" transform="translate(0,0)"/>
<path d="" fill="#1E3A79" transform="translate(0,0)"/>
<path d="" fill="#1E3A79" transform="translate(0,0)"/>
<path d="" fill="#1E3A79" transform="translate(0,0)"/>
<path d="" fill="#1E3A79" transform="translate(0,0)"/>
<path d="" fill="#1E3A78" transform="translate(0,0)"/>
<path d="" fill="#1E3A79" transform="translate(0,0)"/>
<path d="" fill="#1E3A79" transform="translate(0,0)"/>
<path d="" fill="#1E3A79" transform="translate(0,0)"/>
<path d="" fill="#1E3A79" transform="translate(0,0)"/>
<path d="" fill="#1E3A79" transform="translate(0,0)"/>
<path d="" fill="#1E3A79" transform="translate(0,0)"/>
<path d="" fill="#1D3A79" transform="translate(0,0)"/>
<path d="" fill="#1E3A79" transform="translate(0,0)"/>
<path d="" fill="#1E3A79" transform="translate(0,0)"/>
<path d="" fill="#1E3A79" transform="translate(0,0)"/>
<path d="" fill="#1E3A79" transform="translate(0,0)"/>
<path d="" fill="#1E3A79" transform="translate(0,0)"/>
<path d="" fill="#1E3A79" transform="translate(0,0)"/>
<path d="" fill="#1E3A79" transform="translate(0,0)"/>
<path d="" fill="#1E3A79" transform="translate(0,0)"/>
<path d="" fill="#1E3A79" transform="translate(0,0)"/>
<path d="" fill="#1D3978" transform="translate(0,0)"/>
<path d="" fill="#1E3A78" transform="translate(0,0)"/>
<path d="" fill="#1E3A79" transform="translate(0,0)"/>
<path d="" fill="#1E3A79" transform="translate(0,0)"/>
<path d="" fill="#1E3A78" transform="translate(0,0)"/>
<path d="" fill="#1E3A79" transform="translate(0,0)"/>
</svg>
